<?xml version="1.0" encoding="utf-8"?>
<!-- Generator: Adobe Illustrator 25.0.1, SVG Export Plug-In . SVG Version: 6.00 Build 0)  -->
<svg version="1.1" id="Layer_1" xmlns="http://www.w3.org/2000/svg" xmlns:xlink="http://www.w3.org/1999/xlink" x="0px" y="0px"
	 viewBox="0 0 83.1 27" style="enable-background:new 0 0 83.1 27;" xml:space="preserve">
<style type="text/css">
	.st0{fill:#FFFFFF;}
	.st1{fill:none;stroke:#FFFFFF;stroke-width:0.5;stroke-linecap:round;stroke-linejoin:round;stroke-miterlimit:10;}
	.st2{opacity:0.5;}
	.st3{opacity:0.25;}
	.st4{fill:url(#SVGID_1_);}
</style>
<g id="Logo_Hvid">
	<g>
		<path class="st0" d="M31.4,16.4l2-6.5c0-0.1,0.1-0.2,0.2-0.2h1c0.1,0,0.2,0.1,0.2,0.2l1.6,4.1c0,0.1,0.1,0.1,0.1,0l1.6-4.1
			c0-0.1,0.1-0.2,0.2-0.2h1c0.1,0,0.2,0.1,0.2,0.2l2,6.5c0,0.1,0,0.2-0.2,0.2h-1.2c-0.1,0-0.2-0.1-0.2-0.1l-1.3-4.2
			c0-0.1-0.1-0.1-0.1,0l-1.5,4.2c-0.1,0.1-0.1,0.2-0.2,0.2h-0.7c-0.1,0-0.2-0.1-0.2-0.2l-1.6-4.2c0-0.1-0.1-0.1-0.1,0l-1.3,4.2
			c0,0.1-0.1,0.1-0.2,0.1h-1.1C31.4,16.6,31.3,16.5,31.4,16.4z"/>
		<path class="st0" d="M42,14.1c0-1.5,1.1-2.7,2.7-2.7c1.6,0,2.7,1.2,2.7,2.7c0,1.5-1.1,2.7-2.7,2.7C43.1,16.7,42,15.5,42,14.1z
			 M46,14.1c0-0.8-0.6-1.4-1.3-1.4c-0.7,0-1.3,0.6-1.3,1.4c0,0.8,0.6,1.4,1.3,1.4C45.4,15.5,46,14.8,46,14.1z"/>
		<path class="st0" d="M49.8,16.2c-0.1-0.1-0.2-0.1-0.2,0.1v0.1c0,0.1-0.1,0.2-0.2,0.2h-0.9c-0.1,0-0.2-0.1-0.2-0.2V9.9
			c0-0.1,0.1-0.2,0.2-0.2h1c0.1,0,0.2,0.1,0.2,0.2v1.8c0,0.1,0.1,0.2,0.2,0.1c0.3-0.2,0.7-0.4,1.3-0.4c1.4,0,2.4,1.2,2.4,2.7
			c0,1.5-1.1,2.7-2.5,2.7C50.6,16.7,50.1,16.5,49.8,16.2z M52.3,14.1c0-0.8-0.6-1.4-1.3-1.4c-0.7,0-1.3,0.6-1.3,1.4
			c0,0.8,0.6,1.4,1.3,1.4C51.7,15.5,52.3,14.8,52.3,14.1z"/>
		<path class="st0" d="M54.5,10.2c0-0.4,0.4-0.8,0.8-0.8c0.4,0,0.8,0.4,0.8,0.8c0,0.4-0.4,0.8-0.8,0.8C54.8,11,54.5,10.6,54.5,10.2z
			 M54.5,16.4v-4.7c0-0.1,0.1-0.2,0.2-0.2h1c0.1,0,0.2,0.1,0.2,0.2v4.7c0,0.1-0.1,0.2-0.2,0.2h-1C54.6,16.6,54.5,16.5,54.5,16.4z"/>
		<path class="st0" d="M57,14.9V9.9c0-0.1,0.1-0.2,0.2-0.2h1c0.1,0,0.2,0.1,0.2,0.2v5c0,0.3,0.1,0.5,0.5,0.5c0.1,0,0.2,0.1,0.2,0.2
			v0.8c0,0.1-0.1,0.2-0.2,0.2C57.5,16.6,57,16.2,57,14.9z"/>
		<path class="st0" d="M59.4,14.1c0-1.5,1.1-2.7,2.6-2.7c1.5,0,2.6,1.2,2.6,2.7c0,0.2-0.1,0.3-0.2,0.3H61c-0.1,0-0.1,0.1-0.1,0.1
			c0.1,0.6,0.6,1,1.2,1c0.4,0,0.7-0.2,1-0.4c0.1-0.1,0.2-0.2,0.3-0.2h0.9c0.2,0,0.2,0.1,0.2,0.3c-0.3,0.9-1.3,1.5-2.4,1.5
			C60.5,16.7,59.4,15.6,59.4,14.1z M63.1,13.6c0.1,0,0.1,0,0.1-0.1c-0.1-0.5-0.6-0.9-1.1-0.9c-0.6,0-1,0.4-1.1,0.9
			c0,0.1,0,0.1,0.1,0.1H63.1z"/>
		<path class="st0" d="M65.5,16.4V9.9c0-0.1,0.1-0.2,0.2-0.2h3.2c1.4,0,2.4,0.8,2.4,2.3c0,1.4-1.1,2.3-2.5,2.3h-1.7
			c-0.1,0-0.2,0.1-0.2,0.2v1.9c0,0.1-0.1,0.2-0.2,0.2h-1C65.6,16.6,65.5,16.5,65.5,16.4z M68.8,13.1c0.7,0,1.1-0.6,1.1-1.1
			c0-0.6-0.4-1.1-1.1-1.1h-1.7c-0.1,0-0.2,0.1-0.2,0.2v1.8c0,0.1,0.1,0.2,0.2,0.2H68.8z"/>
		<path class="st0" d="M71.7,14.1c0-1.5,1.1-2.7,2.5-2.7c0.6,0,1,0.2,1.3,0.5c0.1,0.1,0.2,0.1,0.2-0.1v-0.2c0-0.1,0.1-0.2,0.2-0.2
			h0.9c0.1,0,0.2,0.1,0.2,0.2v3.3c0,0.3,0.1,0.4,0.3,0.4c0.1,0,0.2,0.1,0.2,0.2v0.9c0,0.1-0.1,0.2-0.2,0.2c-0.7,0-1.1-0.2-1.3-0.6
			c-0.1-0.1-0.1-0.1-0.2,0c-0.4,0.4-0.9,0.7-1.6,0.7C72.9,16.7,71.7,15.6,71.7,14.1z M75.8,14.1c0-0.8-0.6-1.4-1.3-1.4
			c-0.7,0-1.3,0.6-1.3,1.4c0,0.8,0.6,1.4,1.3,1.4C75.2,15.5,75.8,14.8,75.8,14.1z"/>
		<path class="st0" d="M78,18.3v-0.8c0-0.1,0.1-0.2,0.2-0.2c0.7,0,1.3-0.4,1.4-1c0-0.2,0-0.3,0-0.4l-1.9-4.2c-0.1-0.2,0-0.3,0.2-0.3
			h1c0.1,0,0.2,0.1,0.2,0.2l1.2,2.7c0.1,0.2,0.2,0.2,0.3,0l1.1-2.7c0-0.1,0.1-0.2,0.2-0.2h1c0.1,0,0.2,0.1,0.2,0.2l-1.9,4.5
			c-0.7,1.6-1.4,2.3-2.9,2.3C78.1,18.5,78,18.4,78,18.3z"/>
	</g>
	<g>
		<path class="st1" d="M16.5,23.8l-3.3,1.4C11,26.1,8.5,25,7.6,22.9l-5.8-14C0.9,6.7,2,4.2,4.2,3.3L7.5,2c2.2-0.9,4.7,0.1,5.6,2.3
			l5.8,14C19.7,20.4,18.7,22.9,16.5,23.8z"/>
		<g class="st2">
			<g>
				
					<image style="overflow:visible;" width="6.4" height="9.6" xlink:href="31B9E47E.png"  transform="matrix(1 0 0 1 14.373 10.3742)"/>
			</g>
		</g>
		<g class="st2">
			<g>
				
					<image style="overflow:visible;" width="6" height="8.6" xlink:href="31B9E47B.png"  transform="matrix(1 0 0 1 11.109 2.4943)"/>
			</g>
		</g>
		<path class="st0" d="M17.3,14c-2.3,1-4.3,2.3-5.6,3.9L8.5,10c1.4-1.7,3.2-2.9,5.6-3.9s4.7-1.4,6.7-1.2l3.3,7.9
			C21.9,12.7,19.7,13.1,17.3,14z"/>
		<g class="st3">
			<linearGradient id="SVGID_1_" gradientUnits="userSpaceOnUse" x1="10.3261" y1="13.9256" x2="17.6075" y2="10.1934">
				<stop  offset="0" style="stop-color:#504678"/>
				<stop  offset="0.9686" style="stop-color:#504678;stop-opacity:0"/>
			</linearGradient>
			<path class="st4" d="M17.3,14c-2.3,1-4.3,2.3-5.6,3.9L8.5,10c1.4-1.7,3.2-2.9,5.6-3.9s4.7-1.4,6.7-1.2l3.3,7.9
				C21.9,12.7,19.7,13.1,17.3,14z"/>
			
				<image style="overflow:visible;opacity:0.7;" width="66" height="55" xlink:href="202C7B14.png"  transform="matrix(0.24 0 0 0.24 8.3591 4.7537)">
			</image>
		</g>
		<path class="st0" d="M18.4,16.5c-2.5,0-4.8,0.5-6.6,1.5l0-8c1.9-1,4.1-1.5,6.6-1.5s4.9,0.5,6.6,1.5l0,8
			C23.2,17,20.9,16.5,18.4,16.5z"/>
	</g>
</g>
</svg>
